Coordinates
version=1
nRows=40
nColumns=30
inDegrees=yes

Units are S.I. units (second, meters, Newtons, ...)
Angles are in degrees.

endheader
time	floatyaw	floatroll	floatpitch	floatx	floaty	floatz	pro_sup_l	deviation_l	flexion_l	cmc_flexion_l	cmc_abduction_l	mp_flexion_l	ip_flexion_l	2mcp_flexion_l	2mcp_abduction_l	2pm_flexion_l	2md_flexion_l	3mcp_flexion_l	3mcp_abduction_l	3pm_flexion_l	3md_flexion_l	4mcp_flexion_l	4mcp_abduction_l	4pm_flexion_l	4md_flexion_l	5mcp_flexion_l	5mcp_abduction_l	5pm_flexion_l	5md_flexion_l
-1.495000	-160.147433	-5.066637	-73.570646	0.080212	-0.182614	-0.014582	100.808550	3.869546	-0.957027	15.753458	5.603419	-25.655096	-41.812331	31.401199	6.463535	42.218079	28.772396	24.955739	4.066622	44.309682	29.249472	13.552981	-4.294201	52.417540	36.370696	1.167092	-7.599289	62.683307	42.922894
-1.485000	-160.147433	-5.066637	-73.570646	0.080198	-0.182617	-0.014583	100.809710	3.869727	-0.960699	15.714607	5.650509	-25.661173	-41.796388	31.416406	6.472790	42.214526	28.776422	24.951036	4.068666	44.334563	29.269925	13.549872	-4.295791	52.440121	36.383807	1.178087	-7.601224	62.705671	42.930214
-1.475000	-160.147433	-5.066637	-73.570646	0.080186	-0.182623	-0.014586	100.810774	3.869701	-0.967180	15.680821	5.696958	-25.678137	-41.800135	31.436828	6.480999	42.206059	28.773741	24.948675	4.069851	44.359495	29.286423	13.546791	-4.298284	52.463263	36.397620	1.188826	-7.602751	62.721140	42.929411
-1.465000	-160.147433	-5.066637	-73.570646	0.080175	-0.182629	-0.014590	100.811193	3.869352	-0.973991	15.651090	5.745251	-25.704689	-41.822554	31.456937	6.487224	42.195079	28.765643	24.946867	4.070252	44.382806	29.298005	13.542281	-4.300764	52.484427	36.410690	1.199159	-7.605577	62.728795	42.921843
-1.455000	-160.147433	-5.066637	-73.570646	0.080167	-0.182634	-0.014595	100.811008	3.868970	-0.978613	15.623795	5.794060	-25.736218	-41.856955	31.471741	6.490884	42.184995	28.755549	24.943836	4.070225	44.402056	29.304770	13.535084	-4.302504	52.502145	36.421953	1.207493	-7.610284	62.730616	42.911360
-1.445000	-160.147433	-5.066637	-73.570646	0.080161	-0.182636	-0.014598	100.811231	3.869266	-0.979366	15.597664	5.838045	-25.767005	-41.894616	31.479161	6.491901	42.178329	28.746903	24.938188	4.070325	44.414998	29.307567	13.524744	-4.303225	52.516116	36.430744	1.211612	-7.616106	62.730084	42.902358
-1.435000	-160.147433	-5.066637	-73.570646	0.080157	-0.182636	-0.014600	100.813248	3.870948	-0.976010	15.572095	5.871475	-25.792684	-41.928564	31.480729	6.490797	42.175772	28.741657	24.928924	4.071140	44.421288	29.307952	13.511819	-4.303117	52.527031	36.436888	1.210270	-7.621496	62.730178	42.897690
-1.425000	-160.147433	-5.066637	-73.570646	0.080155	-0.182635	-0.014600	100.817691	3.874191	-0.969703	15.546866	5.892510	-25.811848	-41.955653	31.480179	6.488568	42.176652	28.740115	24.915459	4.073089	44.423201	29.307954	13.497530	-4.302651	52.536169	36.440808	1.204201	-7.625033	62.731863	42.897544
-1.415000	-160.147433	-5.066637	-73.570646	0.080154	-0.182633	-0.014599	100.823673	3.878385	-0.962243	15.521652	5.904616	-25.825979	-41.976178	31.480866	6.486363	42.180052	28.741707	24.897905	4.076207	44.424505	29.309409	13.483001	-4.302293	52.544857	36.443491	1.195749	-7.626095	62.733876	42.899853
-1.405000	-160.147433	-5.066637	-73.570646	0.080152	-0.182633	-0.014598	100.829036	3.882342	-0.955056	15.495759	5.914321	-25.837720	-41.991650	31.483802	6.485098	42.185404	28.745726	24.877430	4.079993	44.428424	29.313259	13.468634	-4.302251	52.553922	36.446205	1.187524	-7.625043	62.733840	42.901880
-1.395000	-160.147433	-5.066637	-73.570646	0.080150	-0.182633	-0.014597	100.831485	3.884850	-0.948543	15.468165	5.927272	-25.848568	-42.002435	31.487624	6.485211	42.192075	28.751364	24.856330	4.083440	44.436307	29.319316	13.454170	-4.302343	52.563266	36.449997	1.181205	-7.622924	62.729887	42.901942
-1.385000	-160.147433	-5.066637	-73.570646	0.080148	-0.182632	-0.014597	100.829847	3.885235	-0.942195	15.437788	5.945433	-25.857557	-42.006916	31.490370	6.486630	42.198515	28.757192	24.837655	4.085324	44.447619	29.326523	13.439576	-4.302073	52.571633	36.455123	1.177277	-7.620917	62.721729	42.900220
-1.375000	-160.147433	-5.066637	-73.570646	0.080146	-0.182629	-0.014597	100.824649	3.883599	-0.935284	15.403856	5.967066	-25.861815	-42.002614	31.491561	6.488929	42.202096	28.760917	24.824452	4.084719	44.460746	29.333413	13.426137	-4.300897	52.576720	36.460679	1.175626	-7.619791	62.710669	42.898315
-1.365000	-160.147433	-5.066637	-73.570646	0.080145	-0.182623	-0.014596	100.817676	3.880628	-0.927585	15.366317	5.989142	-25.858564	-41.988168	31.492921	6.491549	42.200298	28.760147	24.818848	4.081503	44.473831	29.338580	13.416698	-4.298558	52.575899	36.464801	1.176246	-7.619672	62.698912	42.898094
-1.355000	-160.147433	-5.066637	-73.570646	0.080145	-0.182614	-0.014596	100.810848	3.877100	-0.919620	15.326078	6.010137	-25.847123	-41.964571	31.497235	6.493986	42.192650	28.753963	24.821215	4.076525	44.485418	29.341236	13.414421	-4.295280	52.567561	36.465570	1.179367	-7.620230	62.688756	42.900682
-1.345000	-160.147433	-5.066637	-73.570646	0.080146	-0.182603	-0.014594	100.805071	3.873410	-0.912328	15.284797	6.031005	-25.829690	-41.934828	31.506273	6.495944	42.181817	28.744119	24.829750	4.071271	44.494941	29.341739	13.420593	-4.291684	52.552531	36.462242	1.184881	-7.621046	62.681965	42.906124
-1.335000	-160.147433	-5.066637	-73.570646	0.080147	-0.182592	-0.014593	100.799729	3.869408	-0.906500	15.244309	6.053689	-25.810500	-41.902591	31.519367	6.497461	42.172545	28.734682	24.840777	4.067203	44.502918	29.341716	13.432983	-4.288490	52.534607	36.456056	1.191660	-7.621840	62.679256	42.913637
-1.325000	-160.147433	-5.066637	-73.570646	0.080147	-0.182585	-0.014592	100.793221	3.864695	-0.902435	15.206137	6.078502	-25.794015	-41.871003	31.533579	6.499006	42.168811	28.729990	24.849855	4.065157	44.510653	29.343434	13.446104	-4.286198	52.519528	36.450020	1.197577	-7.622513	62.680018	42.922069
-1.315000	-160.147433	-5.066637	-73.570646	0.080147	-0.182583	-0.014593	100.784395	3.859250	-0.900004	15.171530	6.102503	-25.783193	-41.842508	31.545300	6.501437	42.171118	28.732201	24.853350	4.065151	44.519490	29.348666	13.453488	-4.284921	52.512711	36.447671	1.200522	-7.623177	62.682605	42.930281
-1.305000	-160.147433	-5.066637	-73.570646	0.080145	-0.182586	-0.014596	100.773984	3.853969	-0.898925	15.141865	6.120189	-25.778732	-41.819333	31.552149	6.505718	42.176013	28.740078	24.849749	4.066651	44.530010	29.357650	13.450735	-4.284465	52.516923	36.451455	1.199805	-7.624263	62.685268	42.937349
-1.295000	-160.147433	-5.066637	-73.570646	0.080143	-0.182592	-0.014600	100.764914	3.850643	-0.898888	15.118830	6.126307	-25.779527	-41.803828	31.554015	6.512409	42.178259	28.749789	24.840050	4.069003	44.541508	29.368738	13.437572	-4.284557	52.531138	36.461544	1.196853	-7.626534	62.687200	42.942667
-1.285000	-160.147433	-5.066637	-73.570646	0.080143	-0.182600	-0.014604	100.761020	3.851269	-0.899403	15.103965	6.119306	-25.783905	-41.798138	31.552760	6.521148	42.174184	28.757132	24.827095	4.071714	44.552011	29.378919	13.417809	-4.285049	52.551059	36.475683	1.194500	-7.630744	62.688972	42.946007
-1.275000	-160.147433	-5.066637	-73.570646	0.080144	-0.182606	-0.014605	100.764725	3.856968	-0.899626	15.097767	6.103534	-25.790844	-41.803314	31.550909	6.530486	42.164070	28.759798	24.814229	4.074463	44.558968	29.385018	13.397322	-4.285951	52.571006	36.490117	1.195208	-7.637032	62.692110	42.947588
-1.265000	-160.147433	-5.066637	-73.570646	0.080147	-0.182608	-0.014603	100.775096	3.867101	-0.898513	15.098973	6.088702	-25.800544	-41.818567	31.550252	6.538293	42.152203	28.758461	24.803999	4.076982	44.560469	29.385071	13.381226	-4.287329	52.586342	36.501196	1.199388	-7.644458	62.698168	42.948089
-1.255000	-160.147433	-5.066637	-73.570646	0.080151	-0.182605	-0.014597	100.787645	3.879176	-0.895310	15.104550	6.086302	-25.814116	-41.841329	31.551219	6.542636	42.144641	28.756154	24.797448	4.078980	44.556405	29.379243	13.371803	-4.289190	52.595348	36.506910	1.204950	-7.651155	62.707831	42.948498
-1.245000	-160.147433	-5.066637	-73.570646	0.080156	-0.182598	-0.014590	100.796272	3.889757	-0.889994	15.110501	6.104300	-25.832606	-41.868275	31.553288	6.542668	42.145918	28.756313	24.794215	4.080188	44.548747	29.369736	13.368107	-4.291447	52.599622	36.507618	1.208387	-7.655092	62.720408	42.949731
-1.235000	-160.147433	-5.066637	-73.570646	0.080159	-0.182591	-0.014582	100.796299	3.895999	-0.883260	15.113179	6.142739	-25.855852	-41.896681	31.555948	6.539051	42.156495	28.760606	24.793145	4.080493	44.540637	29.359683	13.367167	-4.293939	52.602746	36.505648	1.206669	-7.654996	62.733837	42.952183
-1.225000	-160.147433	-5.066637	-73.570646	0.080160	-0.182584	-0.014575	100.786736	3.896916	-0.876131	15.110473	6.192928	-25.881818	-41.925148	31.559439	6.533683	42.172410	28.767824	24.792957	4.080077	44.534816	29.351646	13.365853	-4.296461	52.608077	36.504000	1.198835	-7.650974	62.745375	42.955508
-1.215000	-160.147433	-5.066637	-73.570646	0.080159	-0.182581	-0.014571	100.770460	3.893650	-0.869540	15.102320	6.241183	-25.906853	-41.953159	31.564771	6.528916	42.187414	28.774587	24.792601	4.079502	44.532449	29.346653	13.362382	-4.298814	52.617076	36.504922	1.186488	-7.644646	62.753019	42.958912
-1.205000	-160.147433	-5.066637	-73.570646	0.080157	-0.182580	-0.014568	100.752402	3.888695	-0.864124	15.090267	6.275446	-25.926863	-41.979849	31.573060	6.526625	42.196424	28.777518	24.791324	4.079623	44.533014	29.344302	13.356814	-4.300903	52.629099	36.509069	1.172998	-7.638747	62.756991	42.961820
-1.195000	-160.147433	-5.066637	-73.570646	0.080154	-0.182581	-0.014566	100.737050	3.884681	-0.860136	15.076382	6.291239	-25.938868	-42.003069	31.584617	6.527527	42.198309	28.775524	24.788613	4.081260	44.535109	29.343668	13.350546	-4.302843	52.642381	36.515529	1.161870	-7.636173	62.759991	42.964328
-1.185000	-160.147433	-5.066637	-73.570646	0.080152	-0.182583	-0.014564	100.726682	3.883409	-0.857346	15.062132	6.293549	-25.942167	-42.019602	31.598324	6.531073	42.196474	28.770720	24.784209	4.084746	44.537488	29.344242	13.345280	-4.304961	52.655200	36.522494	1.155246	-7.638668	62.765528	42.966952
-1.175000	-160.147433	-5.066637	-73.570646	0.080152	-0.182583	-0.014560	100.721059	3.885501	-0.855055	15.047854	6.293573	-25.938510	-42.026550	31.611778	6.535903	42.197000	28.767369	24.778209	4.089633	44.539724	29.346246	13.342142	-4.307615	52.666399	36.528085	1.153380	-7.645793	62.775172	42.969815
-1.165000	-160.147433	-5.066637	-73.570646	0.080152	-0.182582	-0.014553	100.718302	3.890598	-0.852415	15.033045	6.302250	-25.931301	-42.023037	31.622335	6.540583	42.205393	28.769483	24.771172	4.094815	44.542272	29.350262	13.341326	-4.310889	52.675168	36.530968	1.155147	-7.654894	62.786780	42.972059
-1.155000	-160.147433	-5.066637	-73.570646	0.080152	-0.182579	-0.014544	100.716125	3.897751	-0.848945	15.017204	6.324338	-25.924365	-42.011186	31.628564	6.544191	42.223628	28.778522	24.764057	4.099017	44.546129	29.356606	13.342237	-4.314341	52.680629	36.530605	1.158883	-7.662255	62.795282	42.972181
-1.145000	-160.147433	-5.066637	-73.570646	0.080153	-0.182575	-0.014533	100.712699	3.905707	-0.844884	15.000583	6.356330	-25.920862	-41.995779	31.631130	6.546576	42.248943	28.792467	24.757928	4.101331	44.552397	29.364960	13.343818	-4.317076	52.681915	36.527280	1.162848	-7.664864	62.795751	42.969157
-1.135000	-160.147433	-5.066637	-73.570646	0.080154	-0.182572	-0.014522	100.706998	3.913045	-0.841072	14.984281	6.389056	-25.922571	-41.982735	31.632405	6.548305	42.274947	28.806729	24.753563	4.101501	44.561912	29.374445	13.344916	-4.318189	52.678921	36.522036	1.165356	-7.661797	62.786695	42.963437
-1.125000	-160.147433	-5.066637	-73.570646	0.080155	-0.182572	-0.014513	100.698813	3.918324	-0.838473	14.969649	6.412973	-25.929602	-41.977161	31.635019	6.550388	42.294498	28.816316	24.751208	4.099888	44.574817	29.383900	13.344650	-4.317364	52.673073	36.516488	1.165005	-7.654461	62.771190	42.956869
-1.115000	-160.147433	-5.066637	-73.570646	0.080155	-0.182575	-0.014507	100.688573	3.920378	-0.837676	14.957449	6.422819	-25.940621	-41.981875	31.640377	6.553785	42.302890	28.818089	24.750677	4.097245	44.589903	29.392004	13.342736	-4.315182	52.667150	36.512386	1.161095	-7.645671	62.755131	42.951603
-1.105000	-160.147433	-5.066637	-73.570646	0.080156	-0.182580	-0.014506	100.676959	3.918650	-0.838616	14.947315	6.419245	-25.953624	-41.996915	31.648123	6.558827	42.299697	28.811984	24.751686	4.094418	44.604092	29.397257	13.339586	-4.312847	52.663907	36.510962	1.153844	-7.638245	62.743982	42.948882
